<?xml version="1.0" encoding="utf-8"?>
<!-- Generator: Adobe Illustrator 22.1.0, SVG Export Plug-In . SVG Version: 6.00 Build 0)  -->
<svg version="1.1" id="Ebene_1" xmlns="http://www.w3.org/2000/svg" xmlns:xlink="http://www.w3.org/1999/xlink" x="0px" y="0px"
	 width="404px" height="80px" viewBox="0 0 404 80" enable-background="new 0 0 404 80" xml:space="preserve">
<path fill="#D2DDE8" d="M80,0H0v80h80c4.801-12.786,7.223-26.342,7.147-40C87.2,25.582,84.84,11.758,80,0z"/>
<path fill="#004C88" d="M173,80H80c4.796-12.787,7.218-26.343,7.146-40C87.213,25.912,84.876,11.75,80,0h93V80z"/>
<path fill="#FFFFFF" d="M133.193,14.638c0.002-0.728,0.594-1.318,1.322-1.316c0,0,0.001,0,0.001,0h2.644
	c0.728-0.002,1.32,0.588,1.322,1.316c0,0,0,0,0,0v24.023c-0.001,0.728-0.593,1.318-1.321,1.317c-0.001,0-0.001,0-0.002,0h-2.625
	c-0.73,0.004-1.326-0.584-1.332-1.314v-9.9h-10.737v9.9c-0.001,0.728-0.593,1.318-1.321,1.317c0,0-0.001,0-0.001,0H118.5
	c-0.728,0.002-1.321-0.587-1.323-1.315c0-0.001,0-0.001,0-0.002V14.638c0.002-0.728,0.594-1.318,1.322-1.316c0,0,0,0,0,0h2.651
	c0.729-0.002,1.321,0.587,1.323,1.316V24.3H133.2L133.193,14.638z"/>
<path fill="#FFFFFF" d="M165.851,14.638c0.653-0.727,0.753-1.324-0.139-1.316l-3.914,0.023c-0.984-0.141-1.97,0.243-2.6,1.011
	l-9.874,11.03V14.661c0.013-0.713-0.554-1.303-1.268-1.316c-0.007,0-0.015,0-0.022,0h-2.69c-0.728-0.002-1.32,0.588-1.322,1.316
	c0,0,0,0,0,0v24.023c0.002,0.727,0.593,1.316,1.32,1.316h2.7c0.709-0.001,1.283-0.577,1.281-1.287c0-0.01,0-0.02,0-0.029v-5.595
	l4.54-5.047l6.567,10.642c0.34,0.717,1.02,1.212,1.807,1.316h3.794c0.73,0,0.96-0.589,0.514-1.316l-9.11-14.629L165.851,14.638z"/>
<path fill="#FFFFFF" d="M103.876,13.322c0.826-0.03,1.562,0.517,1.772,1.316l8.2,24.023c0.225,0.45,0.043,0.997-0.407,1.222
	c-0.144,0.072-0.305,0.105-0.466,0.095h-2.625c-0.806-0.048-1.51-0.563-1.8-1.317l-1.748-5.409h-9.019l-1.739,5.409
	c-0.289,0.754-0.994,1.269-1.8,1.317h-2.621c-0.503,0.031-0.936-0.351-0.967-0.853c-0.01-0.16,0.022-0.32,0.094-0.464l8.2-24.023
	c0.21-0.799,0.946-1.346,1.772-1.316L103.876,13.322z M98.754,28.755h6.026l-3-9.312L98.754,28.755z"/>
<polygon fill="#1A171B" points="7.749,55.233 9.044,55.233 12.26,59.18 15.484,55.233 16.779,55.233 16.779,64.821 15.394,64.821 
	15.394,57.307 12.371,61.074 12.157,61.074 9.133,57.334 9.133,64.821 7.749,64.821 "/>
<polygon fill="#1A171B" points="18.995,64.821 18.995,55.233 24.456,55.233 24.456,56.473 20.379,56.473 20.379,59.386 
	24.305,59.386 24.305,60.627 20.379,60.627 20.379,63.581 24.587,63.581 24.587,64.821 "/>
<path fill="#1A171B" d="M26.515,64.821v-9.588h2.418c0.839-0.053,1.668,0.207,2.327,0.73c0.56,0.506,0.863,1.236,0.827,1.99
	c0.045,1.046-0.608,1.996-1.6,2.329c0.638,0.484,1.17,1.094,1.564,1.791c0.326,0.487,0.675,0.996,1.046,1.528
	s0.654,0.939,0.848,1.22h-1.64L31.1,62.947c-0.343-0.537-0.723-1.05-1.136-1.536c-0.352-0.459-0.896-0.73-1.474-0.737H27.9v4.147
	H26.515z M27.9,59.435h0.93c1.222,0,1.833-0.494,1.832-1.482c-0.001-0.988-0.604-1.481-1.811-1.48H27.9V59.435z"/>
<path fill="#1A171B" d="M42.129,55.887V57.4c-0.978-0.656-2.123-1.021-3.3-1.054c-1.026-0.032-2.023,0.347-2.768,1.054
	c-1.446,1.459-1.462,3.806-0.034,5.283c0.748,0.702,1.748,1.073,2.773,1.028c1.222-0.02,2.413-0.385,3.437-1.053v1.481
	c-1.054,0.53-2.215,0.815-3.395,0.833c-1.431,0.071-2.828-0.45-3.864-1.439c-0.927-0.882-1.448-2.109-1.44-3.389
	c-0.043-1.368,0.498-2.691,1.488-3.636c1.02-0.961,2.381-1.474,3.781-1.426c0.409,0.008,0.817,0.051,1.219,0.13
	C40.746,55.374,41.45,55.6,42.129,55.887z"/>
<path fill="#1A171B" d="M42.992,60.027c-0.021-1.311,0.497-2.574,1.433-3.492c0.994-0.983,2.351-1.509,3.747-1.453
	c1.373-0.046,2.707,0.46,3.705,1.405c0.972,0.917,1.505,2.205,1.467,3.54c0.027,1.326-0.502,2.602-1.46,3.519
	c-1.005,0.965-2.36,1.48-3.753,1.426c-1.375,0.05-2.711-0.463-3.7-1.419C43.48,62.63,42.959,61.352,42.992,60.027z M44.418,60.027
	c-0.027,0.989,0.36,1.945,1.068,2.637c1.516,1.398,3.852,1.395,5.365-0.006c1.424-1.465,1.424-3.797,0-5.262
	c-1.515-1.4-3.85-1.406-5.372-0.014C44.77,58.076,44.385,59.035,44.418,60.027z"/>
<path fill="#1A171B" d="M54.512,62.327c0.541,0.852,1.471,1.379,2.48,1.405c0.393,0.016,0.781-0.1,1.1-0.33
	c0.285-0.204,0.451-0.537,0.441-0.888c0.007-0.322-0.099-0.637-0.3-0.889c-0.415-0.422-0.891-0.78-1.412-1.061
	c-0.605-0.374-1.18-0.792-1.721-1.253c-0.467-0.417-0.724-1.02-0.7-1.646c-0.035-0.722,0.262-1.42,0.806-1.895
	c0.602-0.481,1.359-0.726,2.128-0.688c0.767-0.009,1.516,0.23,2.135,0.682v1.522c-0.287-0.271-0.614-0.494-0.971-0.662
	c-0.403-0.203-0.849-0.306-1.3-0.3c-0.397-0.017-0.789,0.101-1.109,0.337c-0.261,0.189-0.417,0.491-0.42,0.814
	c-0.002,0.34,0.141,0.665,0.393,0.894c0.413,0.355,0.863,0.665,1.343,0.924c0.713,0.397,1.355,0.909,1.9,1.516
	c0.336,0.448,0.508,0.997,0.489,1.556c0.024,0.704-0.249,1.386-0.751,1.88c-0.513,0.492-1.204,0.755-1.915,0.73
	c-0.953,0.026-1.883-0.29-2.624-0.889L54.512,62.327z"/>
<path fill="#1A171B" d="M61.018,55.233H62.4v5.731c-0.082,0.796,0.22,1.583,0.813,2.121c0.524,0.412,1.173,0.632,1.839,0.626h0.055
	c0.713,0.028,1.415-0.178,2-0.585c0.577-0.489,0.891-1.222,0.847-1.977v-5.916h1.385v5.821c0.073,1.097-0.352,2.17-1.157,2.919
	c-0.855,0.696-1.937,1.052-3.038,1c-1.094,0.057-2.17-0.296-3.017-0.992c-0.77-0.725-1.179-1.754-1.115-2.81L61.018,55.233z"/>
<polygon fill="#1A171B" points="71.043,55.233 72.427,55.233 72.427,63.581 76.725,63.581 76.725,64.821 71.043,64.821 "/>
<path fill="none" stroke="#1A171B" stroke-miterlimit="3.864" d="M4.357,53.47C19.1,48.382,50.5,41.66,81.291,46.872"/>
<polygon fill="#1A171B" points="35.598,27.642 33.364,28.396 32.61,30.63 31.856,28.396 29.622,27.642 31.856,26.887 32.61,24.654 
	33.364,26.887 "/>
<polygon fill="#1A171B" points="43.029,20.486 40.796,21.24 40.041,23.473 39.287,21.24 37.053,20.486 39.287,19.732 40.041,17.498 
	40.796,19.732 "/>
<polygon fill="#1A171B" points="51.929,25.121 49.695,25.876 48.941,28.11 48.187,25.876 45.954,25.121 48.187,24.367 
	48.941,22.134 49.695,24.367 "/>
<polygon fill="#1A171B" points="46.105,41.04 43.871,41.794 43.117,44.028 42.362,41.794 40.129,41.04 42.362,40.286 43.117,38.052 
	43.871,40.286 "/>
<path fill="#1A171B" d="M187.564,70.991V59.6h3.023c0.808-0.043,1.604,0.209,2.24,0.709c0.592,0.532,0.91,1.305,0.863,2.1
	c0.107,1.129-0.588,2.18-1.669,2.523v0.033c1.387,0.257,2.342,1.538,2.193,2.941c0.066,0.945-0.353,1.859-1.114,2.424
	c-0.75,0.475-1.628,0.706-2.515,0.661L187.564,70.991z M188.854,60.673v3.844h1.1c1.628,0,2.442-0.677,2.442-2.03
	c0-1.21-0.752-1.815-2.257-1.814L188.854,60.673z M188.854,65.59v4.328h1.483c1.733,0,2.598-0.715,2.595-2.144
	c0.028-0.619-0.23-1.216-0.7-1.619c-0.493-0.392-1.111-0.593-1.741-0.565H188.854z"/>
<path fill="#1A171B" d="M196.35,70.991v-7.859h1.12v1.523h0.032c0.411-1.079,1.475-1.767,2.628-1.7v1.2
	c-0.795-0.035-1.551,0.343-2,1c-0.481,0.774-0.712,1.678-0.661,2.588v3.248H196.35z"/>
<path fill="#1A171B" d="M205.474,70.991v-1.04h-0.033c-0.179,0.309-0.434,0.567-0.741,0.75c-0.496,0.321-1.077,0.486-1.668,0.474
	c-0.574,0.03-1.135-0.18-1.548-0.58c-0.397-0.443-0.6-1.026-0.564-1.619c0.021-0.856,0.56-1.612,1.362-1.911
	c0.743-0.361,1.56-0.543,2.386-0.532c0.259,0.006,0.517-0.011,0.773-0.049c0.014-0.501-0.002-1.001-0.048-1.5
	c-0.097-0.697-0.736-1.187-1.434-1.1c-0.957,0-1.49,0.419-1.6,1.258h-1.25c-0.011-0.553,0.211-1.086,0.613-1.467
	c0.611-0.525,1.405-0.786,2.208-0.726c1.757,0,2.636,0.841,2.636,2.523v5.514L205.474,70.991z M205.441,67.428h-0.66
	c-0.551-0.008-1.097,0.104-1.6,0.33c-0.573,0.193-0.964,0.725-0.975,1.33c-0.015,0.319,0.105,0.629,0.33,0.855
	c0.21,0.194,0.488,0.298,0.774,0.29c0.793-0.029,1.501-0.503,1.829-1.225C205.348,68.508,205.45,67.97,205.441,67.428z"/>
<path fill="#1A171B" d="M211.052,66.155l0.66,0.394c0.423,0.239,0.83,0.506,1.217,0.8c0.409,0.37,0.636,0.9,0.621,1.451
	c0,1.585-0.975,2.377-2.925,2.377c-0.728,0.001-1.451-0.11-2.145-0.329v-1.026c0.652,0.241,1.337,0.38,2.032,0.411
	c1.273,0,1.909-0.425,1.91-1.275c-0.017-0.374-0.216-0.717-0.532-0.918c-0.081-0.059-0.376-0.226-0.887-0.5l-0.709-0.379
	c-0.414-0.203-0.806-0.449-1.169-0.734c-0.4-0.352-0.624-0.862-0.613-1.394c-0.025-0.589,0.232-1.155,0.694-1.523
	c0.584-0.407,1.29-0.603,2-0.557c0.623,0.022,1.241,0.109,1.846,0.258v1.04c-0.583-0.23-1.202-0.353-1.829-0.363
	c-0.403-0.018-0.802,0.087-1.145,0.3c-0.265,0.147-0.433,0.422-0.443,0.725c0.022,0.31,0.206,0.586,0.484,0.725L211.052,66.155z"/>
<path fill="#1A171B" d="M215.4,70.991v-7.859h1.12v7.859H215.4z M215.222,61.085V59.6h1.478v1.484L215.222,61.085z"/>
<rect x="219.378" y="59.601" fill="#1A171B" width="1.12" height="11.389"/>
<rect x="222.795" y="66.315" fill="#1A171B" width="5.021" height="1.129"/>
<path fill="#1A171B" d="M228.808,70.991l3.635-11.39h1.572l3.675,11.39h-1.281l-1.145-3.515H231.2l-1.1,3.515H228.808z
	 M233.218,60.77l-1.669,5.63h3.369l-1.668-5.63L233.218,60.77z"/>
<rect x="239.262" y="59.601" fill="#1A171B" width="1.12" height="11.389"/>
<path fill="#1A171B" d="M248.249,70.015v0.927c-0.587,0.167-1.195,0.246-1.805,0.233c-1.057,0.069-2.09-0.334-2.821-1.1
	c-0.732-0.927-1.092-2.094-1.008-3.273c-0.06-0.99,0.203-1.973,0.75-2.8c0.556-0.707,1.423-1.096,2.321-1.04
	c0.781-0.047,1.54,0.265,2.064,0.846c0.476,0.607,0.716,1.366,0.677,2.136v0.379H243.9v0.468c-0.015,0.759,0.175,1.508,0.549,2.168
	c0.438,0.823,1.309,1.321,2.24,1.282C247.216,70.223,247.739,70.147,248.249,70.015z M243.985,65.381h3.152
	c0.001-0.342-0.112-0.674-0.322-0.944c-0.278-0.366-0.719-0.572-1.178-0.548C244.77,63.848,244.032,64.514,243.985,65.381
	L243.985,65.381z"/>
<path fill="#1A171B" d="M250.458,70.991v-7.859h1.12v1.813h0.032c0.377-1.328,1.11-1.992,2.2-1.991
	c0.958-0.124,1.836,0.552,1.961,1.51c0.012,0.096,0.017,0.193,0.013,0.29h0.033c0.139-0.418,0.367-0.8,0.669-1.121
	c0.4-0.44,0.97-0.687,1.564-0.677c0.59-0.023,1.153,0.245,1.507,0.717c0.355,0.498,0.533,1.099,0.508,1.71v5.61h-1.128v-4.364
	c0.025-0.599-0.021-1.2-0.138-1.788c-0.106-0.469-0.536-0.793-1.016-0.766c-0.6,0-1.092,0.438-1.475,1.313
	c-0.328,0.747-0.495,1.554-0.491,2.37v3.233H254.7v-4.362c0.026-0.597-0.022-1.196-0.145-1.781c-0.099-0.472-0.528-0.8-1.009-0.773
	c-0.596,0-1.088,0.435-1.475,1.306c-0.327,0.75-0.494,1.559-0.491,2.377v3.233H250.458z"/>
<path fill="#1A171B" d="M266.634,70.991v-1.04H266.6c-0.179,0.309-0.434,0.567-0.741,0.75c-0.496,0.321-1.077,0.486-1.668,0.474
	c-0.574,0.03-1.135-0.18-1.549-0.58c-0.396-0.443-0.599-1.026-0.564-1.619c0.023-0.855,0.561-1.611,1.362-1.911
	c0.743-0.361,1.56-0.543,2.386-0.532c0.259,0.006,0.518-0.011,0.774-0.049c0.014-0.5-0.002-1.001-0.047-1.5
	c-0.098-0.697-0.737-1.187-1.436-1.1c-0.957,0-1.491,0.419-1.6,1.258h-1.249c-0.011-0.553,0.211-1.086,0.612-1.467
	c0.611-0.525,1.406-0.786,2.209-0.726c1.758,0,2.637,0.841,2.636,2.523v5.514L266.634,70.991z M266.602,67.428h-0.66
	c-0.551-0.008-1.097,0.105-1.6,0.33c-0.573,0.193-0.963,0.726-0.974,1.33c-0.015,0.319,0.105,0.629,0.33,0.855
	c0.21,0.193,0.487,0.297,0.773,0.29c0.793-0.028,1.502-0.503,1.83-1.225c0.208-0.5,0.309-1.038,0.299-1.58L266.602,67.428z"/>
<path fill="#1A171B" d="M270.35,70.991v-7.859h1.121v1.813h0.033c0.24-1.164,1.268-1.998,2.457-1.991
	c0.59-0.024,1.154,0.244,1.508,0.717c0.354,0.498,0.532,1.1,0.507,1.71v5.61h-1.12v-4.362c0.027-0.597-0.022-1.196-0.146-1.781
	c-0.098-0.471-0.526-0.8-1.007-0.773c-0.682,0-1.241,0.435-1.676,1.306c-0.37,0.738-0.56,1.552-0.556,2.377v3.233H270.35z"/>
<path fill="#1A171B" d="M278.6,70.991V59.6h1.121v5.344h0.032c0.24-1.165,1.269-1.998,2.458-1.991
	c0.59-0.024,1.153,0.244,1.507,0.717c0.355,0.498,0.533,1.099,0.508,1.71v5.61h-1.12v-4.361c0.027-0.597-0.022-1.196-0.145-1.781
	c-0.099-0.471-0.527-0.8-1.008-0.773c-0.682,0-1.241,0.435-1.677,1.306c-0.37,0.738-0.56,1.552-0.555,2.377v3.233H278.6z"/>
<path fill="#1A171B" d="M290.782,70.991v-1.04h-0.032c-0.179,0.309-0.434,0.567-0.741,0.75c-0.496,0.321-1.077,0.487-1.668,0.474
	c-0.574,0.03-1.135-0.18-1.548-0.58c-0.397-0.443-0.6-1.026-0.564-1.619c0.021-0.856,0.56-1.612,1.362-1.911
	c0.743-0.361,1.56-0.543,2.386-0.532c0.259,0.006,0.517-0.011,0.773-0.049c0.014-0.5-0.001-1.001-0.047-1.5
	c-0.098-0.697-0.737-1.187-1.435-1.1c-0.957,0-1.49,0.419-1.6,1.258h-1.25c-0.01-0.553,0.212-1.085,0.613-1.467
	c0.611-0.525,1.405-0.786,2.208-0.726c1.758,0,2.637,0.841,2.636,2.523v5.514L290.782,70.991z M290.75,67.428h-0.66
	c-0.551-0.008-1.097,0.104-1.6,0.33c-0.573,0.193-0.963,0.725-0.975,1.33c-0.014,0.319,0.106,0.629,0.33,0.855
	c0.21,0.194,0.488,0.298,0.774,0.29c0.793-0.028,1.502-0.503,1.83-1.225C290.657,68.508,290.76,67.97,290.75,67.428z"/>
<path fill="#1A171B" d="M194.4,53.738v1.339c-0.57,0.23-0.921,0.367-1.056,0.41c-0.639,0.185-1.302,0.274-1.967,0.266
	c-1.453,0.067-2.812-0.716-3.482-2.007c-0.644-1.263-0.952-2.67-0.895-4.087c-0.07-1.372,0.251-2.736,0.927-3.933
	c0.721-1.151,2.013-1.815,3.369-1.733c0.966-0.052,1.912,0.291,2.62,0.951c0.614,0.62,0.943,1.466,0.91,2.338h-1.45
	c0.027-0.576-0.166-1.141-0.541-1.58c-0.392-0.431-0.957-0.665-1.539-0.637c-1.924,0-2.886,1.553-2.886,4.659
	c-0.038,1.094,0.164,2.184,0.59,3.192c0.436,1.096,1.513,1.799,2.692,1.758C192.674,54.674,193.628,54.344,194.4,53.738z"/>
<polygon fill="#1A171B" points="196.925,46.339 198.375,44.131 199.601,44.131 201.051,46.339 200.044,46.339 199.004,44.968 
	197.932,46.339 "/>
<path fill="#1A171B" d="M200.6,55.568v-1.04h-0.032c-0.179,0.309-0.435,0.567-0.742,0.75c-0.496,0.322-1.077,0.488-1.668,0.475
	c-0.574,0.03-1.135-0.181-1.548-0.581c-0.397-0.442-0.6-1.026-0.564-1.619c0.02-0.855,0.56-1.612,1.362-1.91
	c0.743-0.362,1.56-0.544,2.386-0.533c0.259,0.005,0.518-0.011,0.774-0.048c0.014-0.501-0.002-1.001-0.049-1.5
	c-0.096-0.698-0.736-1.188-1.435-1.1c-0.956,0-1.489,0.419-1.6,1.257h-1.25c-0.01-0.553,0.212-1.086,0.613-1.467
	c0.611-0.525,1.405-0.785,2.208-0.725c1.757,0,2.636,0.841,2.636,2.523v5.513L200.6,55.568z M200.568,52.005h-0.661
	c-0.551-0.008-1.097,0.105-1.6,0.33c-0.573,0.194-0.964,0.726-0.976,1.331c-0.014,0.318,0.106,0.628,0.331,0.854
	c0.21,0.194,0.488,0.298,0.774,0.29c0.793-0.028,1.502-0.502,1.83-1.225c0.209-0.5,0.312-1.038,0.304-1.58H200.568z"/>
<path fill="#1A171B" d="M204.3,55.568v-7.859h1.12v1.814h0.032c0.376-1.327,1.109-1.991,2.2-1.991
	c0.958-0.125,1.836,0.55,1.961,1.508c0.013,0.097,0.017,0.194,0.013,0.292h0.033c0.139-0.417,0.368-0.799,0.669-1.12
	c0.399-0.441,0.969-0.688,1.564-0.677c0.59-0.023,1.153,0.245,1.507,0.717c0.354,0.498,0.533,1.099,0.507,1.709v5.61h-1.128v-4.364
	c0.025-0.6-0.021-1.2-0.137-1.789c-0.106-0.469-0.536-0.793-1.016-0.766c-0.6,0-1.092,0.438-1.475,1.314
	c-0.329,0.746-0.496,1.554-0.491,2.369v3.233h-1.121v-4.361c0.027-0.597-0.022-1.196-0.145-1.781
	c-0.098-0.471-0.526-0.8-1.007-0.774c-0.6,0-1.092,0.435-1.475,1.306c-0.329,0.749-0.496,1.559-0.492,2.377v3.233L204.3,55.568z"/>
<path fill="#1A171B" d="M220.478,55.568v-1.04h-0.032c-0.179,0.309-0.434,0.567-0.741,0.75c-0.496,0.322-1.078,0.487-1.669,0.475
	c-0.574,0.03-1.134-0.181-1.547-0.581c-0.397-0.442-0.601-1.025-0.565-1.619c0.021-0.856,0.561-1.612,1.363-1.91
	c0.743-0.362,1.56-0.544,2.386-0.533c0.259,0.005,0.517-0.011,0.773-0.048c0.014-0.501-0.002-1.001-0.048-1.5
	c-0.097-0.698-0.736-1.188-1.435-1.1c-0.956,0-1.489,0.419-1.6,1.257h-1.253c-0.011-0.553,0.211-1.086,0.612-1.467
	c0.611-0.525,1.406-0.785,2.209-0.725c1.757,0,2.635,0.841,2.636,2.523v5.513L220.478,55.568z M220.446,52.005h-0.661
	c-0.551-0.008-1.097,0.105-1.6,0.33c-0.573,0.194-0.963,0.726-0.975,1.331c-0.014,0.318,0.106,0.628,0.33,0.854
	c0.21,0.194,0.488,0.298,0.774,0.29c0.793-0.028,1.502-0.502,1.83-1.225C220.353,53.085,220.456,52.547,220.446,52.005z"/>
<path fill="#1A171B" d="M224.194,55.568v-7.859h1.12v1.523h0.032c0.412-1.079,1.475-1.767,2.628-1.7v1.2
	c-0.795-0.036-1.552,0.342-2,1c-0.481,0.774-0.712,1.677-0.662,2.587v3.249H224.194z"/>
<path fill="#1A171B" d="M233.319,55.568v-1.04h-0.033c-0.179,0.309-0.435,0.567-0.742,0.75c-0.496,0.322-1.077,0.488-1.668,0.475
	c-0.574,0.029-1.135-0.181-1.548-0.581c-0.397-0.442-0.6-1.026-0.564-1.619c0.021-0.856,0.561-1.612,1.363-1.91
	c0.742-0.362,1.559-0.544,2.385-0.533c0.259,0.005,0.518-0.011,0.774-0.048c0.014-0.501-0.002-1.001-0.048-1.5
	c-0.097-0.698-0.736-1.188-1.435-1.1c-0.956,0-1.489,0.419-1.6,1.257h-1.253c-0.011-0.553,0.211-1.086,0.612-1.467
	c0.611-0.524,1.405-0.785,2.208-0.725c1.758,0,2.637,0.841,2.636,2.523v5.513L233.319,55.568z M233.286,52.005h-0.661
	c-0.551-0.008-1.097,0.105-1.6,0.33c-0.573,0.194-0.963,0.726-0.975,1.331c-0.014,0.318,0.106,0.628,0.331,0.854
	c0.21,0.194,0.487,0.298,0.773,0.29c0.793-0.028,1.502-0.502,1.83-1.225C233.192,53.085,233.295,52.547,233.286,52.005z"/>
<path fill="#1A171B" d="M245.5,55.568V54.23h-0.032c-0.113,0.372-0.325,0.707-0.614,0.967c-0.386,0.367-0.901,0.566-1.434,0.556
	c-1.795,0-2.693-1.349-2.693-4.046c-0.04-0.998,0.171-1.99,0.613-2.886c0.374-0.798,1.182-1.303,2.064-1.289
	c0.947-0.058,1.807,0.554,2.062,1.468h0.032v-4.82h1.12v11.388H245.5z M242.017,51.917c0,1.929,0.546,2.893,1.637,2.893
	c0.64-0.035,1.195-0.456,1.4-1.064c0.306-0.647,0.458-1.356,0.445-2.071c0.03-0.778-0.128-1.552-0.46-2.257
	c-0.222-0.558-0.754-0.931-1.354-0.951c-1.113,0-1.67,1.15-1.67,3.45H242.017z"/>
<path fill="#1A171B" d="M254.347,54.593v0.926c-0.587,0.168-1.195,0.247-1.805,0.234c-1.057,0.069-2.09-0.334-2.822-1.1
	c-0.731-0.928-1.09-2.095-1.006-3.273c-0.061-0.99,0.202-1.973,0.749-2.8c0.555-0.708,1.423-1.097,2.321-1.04
	c0.781-0.047,1.54,0.265,2.064,0.846c0.476,0.607,0.717,1.366,0.677,2.136v0.379H250v0.467c-0.015,0.759,0.174,1.508,0.548,2.168
	c0.439,0.823,1.31,1.321,2.241,1.282C253.315,54.8,253.837,54.725,254.347,54.593z M250.083,49.958h3.152
	c0.001-0.341-0.113-0.673-0.322-0.943c-0.277-0.367-0.718-0.572-1.177-0.548C250.868,48.424,250.129,49.091,250.083,49.958
	L250.083,49.958z"/>
<path fill="#1A171B" d="M267.759,53.738v1.339c-0.569,0.23-0.922,0.367-1.056,0.41c-0.639,0.185-1.301,0.274-1.966,0.266
	c-1.453,0.067-2.812-0.716-3.482-2.007c-0.644-1.263-0.952-2.67-0.895-4.087c-0.07-1.373,0.252-2.737,0.928-3.933
	c0.721-1.151,2.013-1.815,3.368-1.733c0.966-0.052,1.912,0.291,2.62,0.951c0.614,0.62,0.944,1.466,0.91,2.338h-1.451
	c0.028-0.576-0.165-1.141-0.54-1.58c-0.392-0.432-0.957-0.665-1.539-0.637c-1.924,0-2.886,1.553-2.885,4.659
	c-0.038,1.094,0.163,2.183,0.588,3.192c0.436,1.096,1.514,1.799,2.692,1.758C266.033,54.674,266.987,54.345,267.759,53.738z"/>
<path fill="#1A171B" d="M272.354,55.753c-0.976,0.059-1.912-0.392-2.474-1.192c-0.534-0.869-0.79-1.881-0.734-2.9
	c-0.056-1.027,0.2-2.047,0.734-2.926c0.559-0.804,1.496-1.259,2.474-1.2c0.982-0.058,1.924,0.396,2.491,1.2
	c0.538,0.878,0.797,1.898,0.742,2.926c0.056,1.02-0.203,2.032-0.742,2.9C274.276,55.361,273.334,55.812,272.354,55.753z
	 M270.436,51.643c0,2.111,0.639,3.166,1.918,3.167c1.295,0,1.943-1.056,1.942-3.167c-0.001-2.111-0.648-3.17-1.942-3.176
	C271.075,48.467,270.436,49.526,270.436,51.643z"/>
<path fill="#1A171B" d="M277.634,55.568v-7.859h1.12v1.814h0.032c0.377-1.327,1.11-1.991,2.2-1.991
	c0.958-0.125,1.837,0.551,1.962,1.509c0.013,0.096,0.017,0.194,0.013,0.291h0.032c0.14-0.417,0.368-0.799,0.669-1.12
	c0.399-0.441,0.969-0.687,1.564-0.677c0.59-0.024,1.154,0.244,1.507,0.717c0.354,0.497,0.533,1.099,0.508,1.709v5.61h-1.128v-4.364
	c0.025-0.6-0.021-1.2-0.137-1.789c-0.107-0.469-0.536-0.793-1.016-0.766c-0.6,0-1.092,0.438-1.475,1.314
	c-0.329,0.746-0.497,1.553-0.492,2.369v3.233h-1.12v-4.361c0.027-0.597-0.022-1.196-0.145-1.781
	c-0.098-0.472-0.527-0.801-1.008-0.774c-0.596,0-1.088,0.435-1.475,1.306c-0.328,0.749-0.495,1.559-0.491,2.377v3.233
	L277.634,55.568z"/>
<path fill="#1A171B" d="M294.987,54.593v0.926c-0.587,0.168-1.195,0.247-1.805,0.234c-1.057,0.069-2.09-0.334-2.821-1.1
	c-0.732-0.927-1.092-2.095-1.008-3.273c-0.061-0.99,0.202-1.973,0.749-2.8c0.555-0.708,1.423-1.097,2.321-1.04
	c0.781-0.047,1.541,0.265,2.065,0.846c0.476,0.607,0.716,1.366,0.676,2.136v0.379h-4.521v0.467
	c-0.015,0.759,0.174,1.508,0.548,2.168c0.438,0.822,1.309,1.321,2.24,1.282C293.956,54.8,294.478,54.725,294.987,54.593z
	 M290.723,49.958h3.152c0.001-0.342-0.113-0.674-0.323-0.943c-0.277-0.366-0.717-0.572-1.176-0.548
	C291.508,48.424,290.769,49.091,290.723,49.958z M291.868,46.339l0.692-2.208h1.452l-1.105,2.208H291.868z"/>
<path fill="#1A171B" d="M297.212,55.568v-7.859h1.12v1.523h0.032c0.411-1.079,1.475-1.767,2.628-1.7v1.2
	c-0.795-0.035-1.551,0.343-2,1c-0.48,0.774-0.711,1.677-0.661,2.587v3.249H297.212z"/>
<path fill="#1A171B" d="M307.528,54.641v0.9c-0.532,0.152-1.083,0.225-1.636,0.217c-1.097,0.067-2.172-0.327-2.966-1.088
	c-0.771-0.884-1.159-2.038-1.079-3.208c0-2.617,1.069-3.925,3.207-3.925c1.299-0.177,2.496,0.733,2.672,2.032
	c0.024,0.179,0.028,0.359,0.012,0.539H306.4c0-1.091-0.467-1.637-1.4-1.636c-0.628-0.011-1.201,0.353-1.458,0.926
	c-0.283,0.562-0.421,1.185-0.4,1.814c-0.036,0.827,0.165,1.646,0.58,2.362c0.558,0.844,1.53,1.319,2.539,1.241
	C306.69,54.827,307.118,54.768,307.528,54.641z"/>
<path fill="#1A171B" d="M309.535,55.568v-7.859h1.12v7.859H309.535z M309.358,45.662v-1.483h1.484v1.483H309.358z"/>
<path fill="#1A171B" d="M316.065,55.753c-0.976,0.059-1.913-0.392-2.475-1.192c-0.533-0.87-0.789-1.881-0.733-2.9
	c-0.055-1.027,0.2-2.047,0.733-2.926c0.559-0.804,1.497-1.259,2.475-1.2c0.982-0.059,1.924,0.396,2.49,1.2
	c0.538,0.878,0.796,1.898,0.741,2.926c0.056,1.02-0.203,2.032-0.741,2.9C317.986,55.361,317.045,55.812,316.065,55.753z
	 M314.146,51.643c0,2.111,0.64,3.166,1.919,3.167c1.294,0,1.941-1.056,1.942-3.167c0.001-2.111-0.647-3.17-1.942-3.176
	C314.785,48.467,314.145,49.526,314.146,51.643z"/>
<path fill="#1A171B" d="M330.734,54.593v0.926c-0.587,0.168-1.195,0.247-1.805,0.234c-1.057,0.069-2.09-0.334-2.821-1.1
	c-0.732-0.927-1.092-2.095-1.008-3.273c-0.061-0.99,0.203-1.973,0.75-2.8c0.555-0.708,1.423-1.097,2.321-1.04
	c0.781-0.047,1.54,0.265,2.063,0.846c0.476,0.607,0.717,1.366,0.677,2.136v0.379h-4.521v0.467c-0.015,0.759,0.174,1.508,0.548,2.168
	c0.438,0.823,1.31,1.321,2.241,1.282C329.704,54.8,330.225,54.724,330.734,54.593z M326.47,49.958h3.152
	c0.001-0.342-0.113-0.674-0.323-0.943c-0.277-0.367-0.718-0.572-1.177-0.548C327.255,48.424,326.516,49.091,326.47,49.958z"/>
<rect x="337.391" y="44.179" fill="#1A171B" width="1.29" height="11.389"/>
<path fill="#1A171B" d="M341.5,55.568v-7.859h1.119v1.814h0.033c0.242-1.164,1.27-1.996,2.459-1.991
	c0.59-0.023,1.153,0.245,1.507,0.717c0.354,0.497,0.533,1.099,0.508,1.709v5.61h-1.121v-4.361c0.026-0.597-0.022-1.196-0.145-1.781
	c-0.098-0.471-0.526-0.8-1.007-0.774c-0.684,0-1.243,0.435-1.677,1.306c-0.37,0.737-0.561,1.552-0.557,2.377v3.233L341.5,55.568z"/>
<path fill="#1A171B" d="M353.947,55.568V54.23h-0.032c-0.111,0.372-0.323,0.707-0.612,0.967c-0.387,0.367-0.902,0.566-1.435,0.556
	c-1.795,0-2.693-1.349-2.692-4.046c-0.04-0.998,0.17-1.99,0.613-2.886c0.374-0.798,1.182-1.303,2.063-1.289
	c0.948-0.059,1.808,0.553,2.063,1.468h0.032v-4.82h1.121v11.388H353.947z M350.465,51.917c0,1.929,0.545,2.893,1.636,2.893
	c0.64-0.036,1.194-0.457,1.4-1.064c0.304-0.647,0.456-1.356,0.442-2.071c0.03-0.778-0.127-1.552-0.459-2.257
	c-0.222-0.558-0.754-0.931-1.354-0.951C351.02,48.467,350.465,49.617,350.465,51.917z"/>
<path fill="#1A171B" d="M362.121,55.568v-1.814h-0.033c-0.215,1.174-1.248,2.02-2.442,2c-0.595,0.027-1.164-0.245-1.515-0.726
	c-0.35-0.499-0.526-1.099-0.5-1.708v-5.61h1.12v4.36c-0.026,0.6,0.023,1.201,0.145,1.789c0.101,0.469,0.529,0.794,1.008,0.766
	c0.677,0,1.233-0.435,1.668-1.306c0.365-0.737,0.553-1.548,0.549-2.37v-3.24h1.12v7.859H362.121z M359.977,46.339l0.693-2.208h1.451
	l-1.1,2.208H359.977z"/>
<path fill="#1A171B" d="M367.812,50.732l0.66,0.394c0.423,0.239,0.83,0.506,1.217,0.8c0.408,0.37,0.635,0.9,0.62,1.451
	c0,1.586-0.975,2.379-2.925,2.378c-0.728,0.001-1.451-0.111-2.145-0.33V54.4c0.652,0.242,1.337,0.38,2.032,0.411
	c1.273,0,1.909-0.424,1.91-1.273c-0.016-0.375-0.215-0.718-0.532-0.919c-0.08-0.059-0.375-0.226-0.886-0.5l-0.709-0.379
	c-0.414-0.203-0.806-0.448-1.169-0.733c-0.402-0.352-0.627-0.865-0.613-1.4c-0.025-0.589,0.232-1.155,0.693-1.523
	c0.585-0.406,1.29-0.602,2-0.556c0.623,0.022,1.241,0.108,1.846,0.258v1.039c-0.583-0.229-1.203-0.352-1.829-0.362
	c-0.403-0.017-0.803,0.087-1.146,0.3c-0.264,0.148-0.431,0.423-0.442,0.725c0.021,0.31,0.205,0.586,0.483,0.726L367.812,50.732z"/>
<path fill="#1A171B" d="M375.775,54.657v1.007c-0.328,0.055-0.66,0.085-0.992,0.089c-0.602,0.057-1.204-0.115-1.685-0.483
	c-0.37-0.427-0.551-0.986-0.5-1.548v-5.07h-1.282v-0.943h1.284v-1.83l1.128-0.709v2.539h2.112v0.943h-2.112v4.836
	c-0.1,0.628,0.329,1.217,0.957,1.317c0.108,0.017,0.217,0.019,0.325,0.005C375.272,54.8,375.53,54.749,375.775,54.657z"/>
<path fill="#1A171B" d="M377.556,55.568v-7.859h1.121v1.523h0.032c0.411-1.079,1.474-1.768,2.627-1.7v1.2
	c-0.795-0.036-1.552,0.342-2,1c-0.481,0.774-0.712,1.677-0.661,2.587v3.249H377.556z"/>
<path fill="#1A171B" d="M382.851,55.568v-7.859h1.121v7.859H382.851z M382.674,45.662v-1.483h1.483v1.483H382.674z"/>
<path fill="#1A171B" d="M390.662,55.568v-1.04h-0.032c-0.179,0.309-0.435,0.567-0.742,0.75c-0.496,0.322-1.077,0.487-1.668,0.475
	c-0.574,0.029-1.135-0.181-1.548-0.581c-0.397-0.442-0.601-1.026-0.564-1.619c0.02-0.855,0.56-1.612,1.362-1.91
	c0.743-0.362,1.56-0.544,2.386-0.533c0.259,0.005,0.518-0.011,0.774-0.048c0.014-0.501-0.002-1.001-0.049-1.5
	c-0.096-0.697-0.735-1.188-1.434-1.1c-0.957,0-1.492,0.419-1.605,1.257h-1.249c-0.011-0.553,0.212-1.086,0.613-1.467
	c0.611-0.525,1.406-0.786,2.209-0.725c1.756,0,2.634,0.841,2.635,2.523v5.513L390.662,55.568z M390.63,52.005h-0.661
	c-0.551-0.007-1.097,0.105-1.6,0.33c-0.573,0.194-0.963,0.726-0.975,1.331c-0.014,0.318,0.106,0.628,0.331,0.854
	c0.21,0.194,0.487,0.298,0.773,0.29c0.793-0.027,1.503-0.502,1.83-1.225C390.537,53.085,390.64,52.547,390.63,52.005L390.63,52.005z
	"/>
<rect x="187.333" y="28.755" fill="#1A171B" width="1.932" height="11.39"/>
<path fill="#1A171B" d="M197.892,40.145V34.7c0-1.354-0.627-2.592-2.129-2.592c-1.051-0.01-1.99,0.656-2.328,1.651H193.4v-1.471
	h-1.83v7.857h1.83v-3.4c0-1.057,0.529-2.922,1.849-2.922c0.189-0.02,0.378,0.033,0.528,0.149c0.314,0.3,0.281,1.3,0.281,1.683v4.49
	L197.892,40.145z"/>
<path fill="#1A171B" d="M206.174,40.145v-11.39h-1.833v4.473h-0.032c-0.395-0.711-1.152-1.143-1.965-1.122
	c-2.179,0-2.691,2.377-2.691,4.11c0,1.816,0.4,4.111,2.691,4.111c0.833-0.048,1.579-0.531,1.965-1.271h0.032v1.089H206.174z
	 M204.341,36.216c0,0.859-0.214,2.691-1.386,2.691c-1.272,0-1.354-1.783-1.354-2.691c0-0.957,0.033-2.69,1.354-2.69
	C204.226,33.526,204.341,35.308,204.341,36.216z"/>
<path fill="#1A171B" d="M214.691,40.145v-7.857h-1.832v3.4c0,1.057-0.528,2.922-1.849,2.922c-0.189,0.02-0.378-0.033-0.528-0.149
	c-0.314-0.3-0.281-1.3-0.281-1.683v-4.49h-1.832v5.447c0,1.354,0.627,2.592,2.129,2.592c1.047-0.002,1.98-0.663,2.328-1.651h0.033
	v1.469H214.691z"/>
<path fill="#1A171B" d="M221.487,37.966c0-2.245-3.451-2.773-3.451-3.813c0-0.528,0.81-0.726,1.222-0.726
	c0.617,0.033,1.217,0.214,1.75,0.528V32.4c-0.578-0.181-1.178-0.282-1.783-0.3c-1.469,0-2.823,0.677-2.823,2.311
	c0,2.08,3.384,2.856,3.384,3.781c0,0.627-0.891,0.709-1.353,0.709c-0.693-0.017-1.374-0.181-2-0.479v1.585
	c0.673,0.212,1.375,0.317,2.08,0.314C220.051,40.327,221.487,39.716,221.487,37.966z"/>
<path fill="#1A171B" d="M227.936,33.559v-1.271h-2.328v-2.972l-1.832,1.106v1.866h-1.535v1.271h1.535v4.605
	c0,1.635,0.809,2.163,2.41,2.163c0.503-0.003,1.004-0.047,1.5-0.132v-1.288c-0.275,0.076-0.557,0.12-0.842,0.132
	c-1.139,0-1.238-0.841-1.238-1.766v-3.714H227.936z"/>
<path fill="#1A171B" d="M233.526,34.021v-1.915c-1.111-0.059-2.134,0.599-2.542,1.634h-0.033v-1.452h-1.832v7.857h1.832V36.7
	C230.951,34.846,231.645,34.021,233.526,34.021z"/>
<path fill="#1A171B" d="M236.87,30.571v-1.816h-1.832v1.816H236.87z M236.87,40.145v-7.857h-1.832v7.857L236.87,40.145z"/>
<path fill="#1A171B" d="M245.1,35.738v-0.446c0-1.915-0.99-3.186-2.988-3.186c-2.344,0-3.367,1.469-3.367,3.7
	c0,2.591,1.172,4.523,3.962,4.523c0.744,0.011,1.484-0.095,2.195-0.314v-1.273c-0.48,0.182-0.987,0.283-1.5,0.3
	c-1.725-0.099-3.045-1.574-2.954-3.3L245.1,35.738z M243.366,34.632H240.5c0.058-0.773,0.709-1.367,1.485-1.354
	c0.701-0.061,1.319,0.457,1.38,1.158C243.371,34.501,243.371,34.567,243.366,34.632L243.366,34.632z"/>
<rect x="246.486" y="34.995" fill="#1A171B" width="6.14" height="1.783"/>
<path fill="#1A171B" d="M265.694,40.145v-7.857h-1.833v3.4c0,1.057-0.527,2.922-1.848,2.922c-0.189,0.02-0.378-0.033-0.529-0.149
	c-0.313-0.3-0.281-1.3-0.281-1.683v-4.49h-1.832v5.447c0,1.354,0.628,2.592,2.13,2.592c1.047-0.002,1.979-0.663,2.327-1.651h0.033
	v1.469H265.694z"/>
<path fill="#1A171B" d="M274.272,40.145V34.7c0-1.354-0.627-2.592-2.129-2.592c-1.051-0.01-1.989,0.656-2.327,1.651h-0.033v-1.471
	h-1.833v7.857h1.833v-3.4c0-1.057,0.528-2.922,1.848-2.922c0.189-0.02,0.378,0.033,0.528,0.149c0.313,0.3,0.281,1.3,0.281,1.683
	v4.49L274.272,40.145z"/>
<path fill="#1A171B" d="M282.553,40.145v-11.39h-1.831v4.473h-0.034c-0.394-0.711-1.151-1.143-1.964-1.122
	c-2.179,0-2.691,2.377-2.691,4.11c0,1.816,0.4,4.111,2.691,4.111c0.833-0.048,1.579-0.531,1.964-1.271h0.034v1.089H282.553z
	 M280.722,36.216c0,0.859-0.215,2.691-1.387,2.691c-1.271,0-1.354-1.783-1.354-2.691c0-0.957,0.034-2.69,1.354-2.69
	C280.606,33.526,280.722,35.308,280.722,36.216L280.722,36.216z"/>
<polygon fill="#1A171B" points="297.687,40.145 297.687,28.755 295.754,28.755 295.754,33.476 291.661,33.476 291.661,28.755 
	289.73,28.755 289.73,40.145 291.661,40.145 291.661,34.946 295.754,34.946 295.754,40.145 "/>
<path fill="#1A171B" d="M305.787,40.145v-5.6c0-1.816-1.189-2.443-2.856-2.443c-1.634,0-2.988,0.693-2.988,2.493h1.783
	c-0.07-0.593,0.354-1.13,0.947-1.2c0.084-0.01,0.169-0.01,0.253,0c0.908,0,1.106,0.66,1.106,1.436v0.776
	c-1.783,0.049-4.391,0.3-4.391,2.657c0.175,1.303,1.372,2.217,2.675,2.043c0.691-0.093,1.306-0.483,1.684-1.069h0.032v0.908
	L305.787,40.145z M304.037,36.679c0,1.006-0.413,2.36-1.634,2.36c-0.472,0.064-0.906-0.266-0.97-0.738
	c-0.009-0.067-0.01-0.136-0.004-0.203C301.429,36.91,303.163,36.679,304.037,36.679z"/>
<path fill="#1A171B" d="M314.3,40.145V34.7c0-1.354-0.627-2.592-2.128-2.592c-1.051-0.01-1.989,0.656-2.327,1.651h-0.034v-1.471
	h-1.831v7.857h1.831v-3.4c0-1.057,0.529-2.922,1.849-2.922c0.189-0.02,0.378,0.033,0.528,0.149c0.313,0.3,0.281,1.3,0.281,1.683
	v4.49L314.3,40.145z"/>
<path fill="#1A171B" d="M322.582,40.145v-11.39h-1.833v4.473h-0.033c-0.394-0.711-1.151-1.143-1.964-1.122
	c-2.18,0-2.691,2.377-2.691,4.11c0,1.816,0.4,4.111,2.691,4.111c0.833-0.048,1.579-0.531,1.964-1.271h0.033v1.089H322.582z
	 M320.749,36.216c0,0.859-0.215,2.691-1.387,2.691c-1.271,0-1.353-1.783-1.353-2.691c0-0.957,0.033-2.69,1.353-2.69
	C320.633,33.526,320.749,35.308,320.749,36.216z"/>
<path fill="#1A171B" d="M330.67,35.738v-0.446c0-1.915-0.991-3.186-2.987-3.186c-2.345,0-3.369,1.469-3.369,3.7
	c0,2.591,1.172,4.523,3.962,4.523c0.745,0.012,1.488-0.094,2.2-0.314v-1.273c-0.48,0.182-0.987,0.283-1.5,0.3
	c-1.725-0.099-3.046-1.574-2.954-3.3L330.67,35.738z M328.937,34.632h-2.873c0.059-0.773,0.71-1.367,1.486-1.354
	c0.701-0.063,1.321,0.454,1.385,1.155C328.941,34.499,328.941,34.566,328.937,34.632z"/>
<rect x="332.517" y="28.755" fill="#1A171B" width="1.832" height="11.39"/>
<path fill="#1A171B" d="M341.243,37.966c0-2.245-3.45-2.773-3.45-3.813c0-0.528,0.809-0.726,1.222-0.726
	c0.617,0.034,1.217,0.215,1.749,0.528V32.4c-0.578-0.181-1.178-0.282-1.783-0.3c-1.469,0-2.822,0.677-2.822,2.311
	c0,2.08,3.383,2.856,3.383,3.781c0,0.627-0.891,0.709-1.353,0.709c-0.693-0.017-1.374-0.181-2-0.479v1.585
	c0.673,0.211,1.375,0.317,2.08,0.314C339.807,40.327,341.243,39.716,341.243,37.966z"/>
<polygon fill="#1A171B" points="349.607,40.145 346.437,35.688 349.343,32.288 347.147,32.288 344.605,35.292 344.605,28.755 
	342.773,28.755 342.773,40.145 344.605,40.145 344.605,36.183 344.638,36.183 347.411,40.145 "/>
<path fill="#1A171B" d="M356.486,40.145v-5.6c0-1.816-1.189-2.443-2.856-2.443c-1.634,0-2.988,0.693-2.988,2.493h1.783
	c-0.07-0.593,0.354-1.13,0.947-1.2c0.084-0.01,0.169-0.01,0.253,0c0.908,0,1.106,0.66,1.106,1.436v0.776
	c-1.783,0.049-4.39,0.3-4.39,2.657c0.173,1.302,1.368,2.217,2.67,2.044c0.692-0.092,1.309-0.483,1.687-1.07h0.033v0.908
	L356.486,40.145z M354.736,36.679c0,1.006-0.412,2.36-1.634,2.36c-0.472,0.064-0.906-0.266-0.97-0.738
	c-0.009-0.067-0.01-0.136-0.004-0.203C352.128,36.91,353.861,36.679,354.736,36.679z"/>
<path fill="#1A171B" d="M368.96,40.145V34.7c0-1.354-0.626-2.592-2.128-2.592c-0.99,0.019-1.867,0.641-2.213,1.568h-0.033
	c-0.163-0.952-1.017-1.628-1.981-1.568c-0.911-0.019-1.736,0.536-2.062,1.387h-0.034v-1.207h-1.832v7.857h1.832v-3.4
	c0-0.908,0.4-2.922,1.585-2.922c0.189-0.02,0.378,0.033,0.528,0.149c0.314,0.3,0.28,1.3,0.28,1.683v4.49h1.833v-3.4
	c0-0.908,0.4-2.922,1.584-2.922c0.189-0.02,0.378,0.033,0.528,0.149c0.314,0.3,0.281,1.3,0.281,1.683v4.49L368.96,40.145z"/>
<path fill="#1A171B" d="M381.484,40.145V34.7c0-1.354-0.627-2.592-2.13-2.592c-0.989,0.019-1.866,0.641-2.211,1.568h-0.034
	c-0.162-0.952-1.017-1.629-1.981-1.568c-0.911-0.019-1.736,0.536-2.063,1.387h-0.033v-1.207H371.2v7.857h1.833v-3.4
	c0-0.908,0.4-2.922,1.585-2.922c0.189-0.02,0.378,0.033,0.528,0.149c0.314,0.3,0.281,1.3,0.281,1.683v4.49h1.832v-3.4
	c0-0.908,0.4-2.922,1.584-2.922c0.189-0.02,0.378,0.033,0.529,0.149c0.313,0.3,0.281,1.3,0.281,1.683v4.49L381.484,40.145z"/>
<path fill="#1A171B" d="M389.6,35.738v-0.446c0-1.915-0.99-3.186-2.988-3.186c-2.344,0-3.368,1.469-3.368,3.7
	c0,2.591,1.173,4.523,3.963,4.523c0.744,0.011,1.484-0.095,2.195-0.314v-1.273c-0.48,0.182-0.987,0.283-1.5,0.3
	c-1.726-0.099-3.046-1.574-2.955-3.3L389.6,35.738z M387.866,34.632h-2.872c0.059-0.774,0.71-1.367,1.486-1.354
	c0.701-0.063,1.32,0.454,1.383,1.155c0.006,0.066,0.007,0.133,0.002,0.199H387.866z"/>
<path fill="#1A171B" d="M395.738,34.021v-1.915c-1.109-0.057-2.131,0.6-2.538,1.634h-0.033v-1.452h-1.837v7.857h1.833V36.7
	C393.163,34.846,393.856,34.021,395.738,34.021z"/>
<path fill="#1A171B" d="M195.224,19c0-3.722-1.04-5.671-5-5.671H187.4v11.41h2.824c0.746,0.028,1.492-0.061,2.211-0.264
	C194.811,23.716,195.224,21.2,195.224,19z M193.1,19c0,1.24-0.05,3.275-1.255,4.019c-0.5,0.255-1.057,0.374-1.617,0.347h-0.892V14.7
	h0.892C192.93,14.7,193.1,16.82,193.1,19z"/>
<path fill="#1A171B" d="M202.96,20.315V19.87c0-1.916-0.991-3.187-2.988-3.187c-2.344,0-3.368,1.47-3.368,3.7
	c0,2.592,1.172,4.523,3.962,4.523c0.744,0.012,1.484-0.094,2.195-0.313v-1.274c-0.48,0.182-0.987,0.284-1.5,0.3
	c-1.726-0.099-3.046-1.574-2.955-3.3L202.96,20.315z M201.226,19.209h-2.872c0.059-0.773,0.71-1.366,1.485-1.353
	c0.701-0.064,1.321,0.452,1.384,1.153C201.23,19.075,201.23,19.142,201.226,19.209L201.226,19.209z"/>
<path fill="#1A171B" d="M211.029,24.723v-7.858H209.2v3.4c0,1.057-0.528,2.923-1.849,2.923c-0.189,0.02-0.378-0.034-0.528-0.149
	c-0.313-0.3-0.28-1.3-0.28-1.684v-4.49h-1.833v5.447c0,1.354,0.627,2.592,2.13,2.592c1.047-0.001,1.98-0.663,2.327-1.651h0.033v1.47
	L211.029,24.723z"/>
<path fill="#1A171B" d="M218.172,18.136v-1.271h-2.328v-2.971L214.012,15v1.865h-1.535v1.271h1.535v4.606
	c0,1.634,0.809,2.162,2.41,2.162c0.503-0.003,1.004-0.047,1.5-0.132v-1.287c-0.275,0.076-0.557,0.12-0.842,0.131
	c-1.139,0-1.238-0.841-1.238-1.766v-3.714H218.172z"/>
<path fill="#1A171B" d="M223.927,22.543c0-2.245-3.45-2.773-3.45-3.813c0-0.528,0.81-0.726,1.222-0.726
	c0.617,0.034,1.217,0.215,1.75,0.529v-1.552c-0.578-0.181-1.178-0.282-1.783-0.3c-1.469,0-2.823,0.677-2.823,2.312
	c0,2.079,3.384,2.855,3.384,3.78c0,0.627-0.891,0.71-1.353,0.71c-0.693-0.018-1.374-0.181-2-0.479v1.585
	c0.673,0.211,1.375,0.316,2.08,0.313C222.491,24.9,223.927,24.293,223.927,22.543z"/>
<path fill="#1A171B" d="M231.565,19.556c0-1.931-1.073-2.873-2.988-2.873c-2.36,0-3.6,1.486-3.6,3.764c0,2.741,1.4,4.457,4.21,4.457
	c0.779-0.005,1.552-0.127,2.294-0.363v-1.122c-0.426,0.14-0.872,0.208-1.32,0.2c-1.752,0.043-3.208-1.343-3.251-3.095
	c-0.003-0.135,0.002-0.27,0.016-0.405c0-0.941,0.346-2.146,1.5-2.146c0.958,0,1.189,0.776,1.189,1.585L231.565,19.556z"/>
<path fill="#1A171B" d="M239.135,24.723v-5.448c0-1.353-0.627-2.592-2.128-2.592c-1.051-0.01-1.99,0.657-2.328,1.652h-0.033v-5
	h-1.832v11.388h1.832v-3.4c0-1.057,0.528-2.922,1.848-2.922c0.189-0.02,0.378,0.034,0.528,0.149c0.314,0.3,0.281,1.3,0.281,1.684
	v4.49L239.135,24.723z"/>
<rect x="240.996" y="19.572" fill="#1A171B" width="6.14" height="1.783"/>
<path fill="#1A171B" d="M256.362,21.57c0.13-1.473-0.958-2.773-2.431-2.904c-0.009-0.001-0.018-0.002-0.028-0.002v-0.033
	c1.178-0.309,1.974-1.408,1.9-2.624c0-1.981-1.486-2.675-3.236-2.675h-3.5v11.391h3.5C254.744,24.723,256.362,24.046,256.362,21.57z
	 M253.836,16.337c0,1.42-0.825,1.667-2.063,1.667H251V14.7h0.776C252.994,14.7,253.836,14.917,253.836,16.337z M254.397,21.405
	c0,1.634-1.254,1.948-2.624,1.948H251v-3.979h0.776c1.4,0,2.624,0.396,2.624,2.031L254.397,21.405z"/>
<path fill="#1A171B" d="M262.565,18.6v-1.917c-1.111-0.059-2.135,0.6-2.542,1.635h-0.034v-1.453h-1.831v7.858h1.831v-3.45
	C259.989,19.424,260.683,18.6,262.565,18.6z"/>
<path fill="#1A171B" d="M269.739,24.723v-5.6c0-1.816-1.19-2.444-2.857-2.444c-1.634,0-2.988,0.694-2.988,2.493h1.784
	c-0.07-0.592,0.353-1.13,0.945-1.2c0.085-0.01,0.17-0.01,0.255,0c0.908,0,1.107,0.66,1.107,1.436v0.776
	c-1.783,0.05-4.392,0.3-4.392,2.658c0.175,1.303,1.372,2.217,2.675,2.043c0.691-0.093,1.306-0.483,1.684-1.069h0.033v0.908
	L269.739,24.723z M267.989,21.256c0,1.007-0.413,2.36-1.635,2.36c-0.472,0.064-0.906-0.266-0.97-0.738
	c-0.009-0.067-0.01-0.135-0.004-0.202C265.38,21.487,267.114,21.256,267.989,21.256z"/>
<path fill="#1A171B" d="M276.468,22.543c0-2.245-3.449-2.773-3.449-3.813c0-0.528,0.809-0.726,1.221-0.726
	c0.617,0.034,1.217,0.215,1.75,0.529v-1.552c-0.578-0.181-1.178-0.282-1.783-0.3c-1.469,0-2.823,0.677-2.823,2.312
	c0,2.079,3.384,2.855,3.384,3.78c0,0.627-0.891,0.71-1.352,0.71c-0.693-0.018-1.374-0.181-2-0.479v1.585
	c0.673,0.211,1.375,0.316,2.08,0.313C275.033,24.9,276.468,24.293,276.468,22.543z"/>
<path fill="#1A171B" d="M279.947,15.148v-1.816h-1.833v1.816H279.947z M279.947,24.723v-7.858h-1.833v7.858H279.947z"/>
<rect x="282.384" y="13.332" fill="#1A171B" width="1.831" height="11.39"/>
<path fill="#1A171B" d="M288.486,15.148v-1.816h-1.833v1.816H288.486z M288.486,24.723v-7.858h-1.833v7.858H288.486z"/>
<path fill="#1A171B" d="M296.585,24.723v-5.6c0-1.816-1.19-2.444-2.857-2.444c-1.634,0-2.987,0.694-2.987,2.493h1.783
	c-0.07-0.593,0.354-1.13,0.947-1.2c0.084-0.01,0.169-0.01,0.253,0c0.909,0,1.107,0.66,1.107,1.436v0.776
	c-1.783,0.05-4.391,0.3-4.391,2.658c0.175,1.303,1.373,2.217,2.676,2.041c0.69-0.093,1.304-0.483,1.682-1.067h0.033v0.908
	L296.585,24.723z M294.835,21.256c0,1.007-0.413,2.36-1.635,2.36c-0.471,0.064-0.905-0.266-0.969-0.737
	c-0.009-0.067-0.01-0.136-0.004-0.203C292.227,21.487,293.959,21.256,294.835,21.256z"/>
<path fill="#1A171B" d="M305.1,24.723v-5.448c0-1.353-0.628-2.592-2.13-2.592c-1.051-0.01-1.989,0.657-2.327,1.652h-0.033v-1.47
	h-1.833v7.858h1.833v-3.4c0-1.057,0.528-2.922,1.848-2.922c0.189-0.02,0.378,0.034,0.529,0.149c0.314,0.3,0.28,1.3,0.28,1.684v4.49
	L305.1,24.723z"/>
<path fill="#1A171B" d="M309.252,15.148v-1.816h-1.832v1.816H309.252z M309.252,24.723v-7.858h-1.832v7.858H309.252z"/>
<path fill="#1A171B" d="M316.146,22.543c0-2.245-3.45-2.773-3.45-3.813c0-0.528,0.809-0.726,1.222-0.726
	c0.617,0.034,1.217,0.215,1.75,0.529v-1.552c-0.578-0.181-1.178-0.282-1.784-0.3c-1.469,0-2.822,0.677-2.822,2.312
	c0,2.079,3.383,2.855,3.383,3.78c0,0.627-0.89,0.71-1.352,0.71c-0.693-0.018-1.374-0.181-2-0.479v1.585
	c0.673,0.211,1.375,0.316,2.08,0.313C314.71,24.9,316.146,24.293,316.146,22.543z"/>
<path fill="#1A171B" d="M323.783,19.556c0-1.931-1.072-2.873-2.987-2.873c-2.36,0-3.6,1.486-3.6,3.764c0,2.741,1.4,4.457,4.21,4.457
	c0.781-0.005,1.556-0.127,2.3-0.363v-1.122c-0.426,0.14-0.873,0.207-1.321,0.2c-1.752,0.043-3.208-1.343-3.251-3.095
	c-0.003-0.135,0.002-0.27,0.016-0.405c0-0.941,0.346-2.146,1.5-2.146c0.958,0,1.189,0.776,1.189,1.585L323.783,19.556z"/>
<path fill="#1A171B" d="M331.354,24.723v-5.448c0-1.353-0.627-2.592-2.13-2.592c-1.051-0.009-1.989,0.657-2.327,1.652h-0.033v-5
	h-1.832v11.388h1.832v-3.4c0-1.057,0.528-2.922,1.849-2.922c0.189-0.02,0.378,0.033,0.529,0.149c0.313,0.3,0.28,1.3,0.28,1.684v4.49
	L331.354,24.723z"/>
<path fill="#1A171B" d="M339.47,20.315V19.87c0-1.916-0.99-3.187-2.988-3.187c-2.343,0-3.367,1.47-3.367,3.7
	c0,2.592,1.172,4.523,3.962,4.523c0.744,0.012,1.484-0.094,2.195-0.313v-1.274c-0.48,0.182-0.987,0.284-1.5,0.3
	c-1.726-0.098-3.047-1.574-2.956-3.3L339.47,20.315z M337.738,19.209h-2.873c0.059-0.773,0.711-1.366,1.486-1.353
	c0.701-0.063,1.321,0.454,1.385,1.155C337.741,19.077,337.742,19.143,337.738,19.209z"/>
</svg>
