<svg xmlns="http://www.w3.org/2000/svg" width="350.632" height="289.171" viewBox="0 0 350.632 289.171">
    <defs>
        <style>
            .prefix__cls-3{fill:#d61515}
        </style>
    </defs>
    <g id="prefix__Grupo_84" data-name="Grupo 84" transform="translate(-745 -3195)">
        <g id="prefix__Background_Simple" data-name="Background Simple" transform="translate(745 3195)">
            <g id="prefix__Grupo_31" data-name="Grupo 31">
                <path id="prefix__Caminho_38" d="M134.968 106.916s-45.63 44.268-59.2 94.428 6.042 102.833 52.021 131.988 107.342 3.857 168.366 12.159 117.608-15.408 125.164-76.556-36.6-69.04-63.216-128.543-113.27-131.469-223.135-33.476z" data-name="Caminho 38" transform="translate(-71.545 -58.648)" style="fill:#fff"/>
                <path id="prefix__Caminho_39" d="M134.968 106.916s-45.63 44.268-59.2 94.428 6.042 102.833 52.021 131.988 107.342 3.857 168.366 12.159 117.608-15.408 125.164-76.556-36.6-69.04-63.216-128.543-113.27-131.469-223.135-33.476z" data-name="Caminho 39" transform="translate(-71.545 -58.648)" style="opacity:.7;fill:#fff"/>
            </g>
        </g>
        <g id="prefix__speaker" transform="translate(821 3272)">
            <g id="prefix__Grupo_83" data-name="Grupo 83">
                <g id="prefix__Grupo_82" data-name="Grupo 82">
                    <path id="prefix__Caminho_260" d="M328.21 305.662a78.332 78.332 0 0 1-31.031-6.37l-2.835-1.214a9.736 9.736 0 0 0-13.569 8.949V332.2a9.736 9.736 0 0 0 13.569 8.952l2.835-1.217a78.5 78.5 0 0 1 17.08-5.106v9.9a8.371 8.371 0 1 0 16.742 0v-11.445a13.952 13.952 0 0 0-2.791-27.622zm-36.275 30.423a4.065 4.065 0 0 1-1.426.271 4.16 4.16 0 0 1-4.155-4.155v-25.172a4.119 4.119 0 0 1 5.581-3.889zm5.581-2.291v-28.361a83.606 83.606 0 0 0 22.323 5.394V328.4a83.592 83.592 0 0 0-22.323 5.394zm27.9 10.932a2.79 2.79 0 1 1-5.581 0v-10.712c1.85-.2 3.711-.315 5.581-.379zm2.791-16.741c-.932 0-1.861.039-2.79.07v-16.882c.929.031 1.858.07 2.79.07a8.371 8.371 0 0 1 0 16.742z" class="prefix__cls-3" data-name="Caminho 260" transform="translate(-185.903 -196.839)"/>
                    <path id="prefix__Caminho_261" d="M33.484 0v66.968H0v69.758a19.554 19.554 0 0 0 19.532 19.532h69.931a47.309 47.309 0 0 0 72.375-.19v.19H173V0zM19.532 150.678a13.967 13.967 0 0 1-13.951-13.952V72.549h27.9v64.178a13.968 13.968 0 0 1-13.949 13.951zm147.887 0h-1.685c.583-.932 1.166-1.864 1.685-2.838zm-41.855 16.742a41.855 41.855 0 1 1 41.855-41.855 41.9 41.9 0 0 1-41.854 41.854zm41.855-64.13a47.4 47.4 0 1 0-82.025 47.388H33.177a19.468 19.468 0 0 0 5.888-13.952V5.581h128.354z" class="prefix__cls-3" data-name="Caminho 261"/>
                    <path id="prefix__Caminho_262" d="M249.323 49.549H132.129v33.484h117.194zm-5.581 27.9H137.71V55.13h106.032v22.322z" class="prefix__cls-3" data-name="Caminho 262" transform="translate(-87.484 -32.807)"/>
                    <path id="prefix__Retângulo_59" d="M0 0H5.579V5.579H0z" class="prefix__cls-3" data-name="Retângulo 59" transform="translate(44.645 55.807)"/>
                    <path id="prefix__Retângulo_60" d="M0 0H106.031V5.579H0z" class="prefix__cls-3" data-name="Retângulo 60" transform="translate(55.806 55.807)"/>
                    <path id="prefix__Retângulo_61" d="M0 0H117.192V5.579H0z" class="prefix__cls-3" data-name="Retângulo 61" transform="translate(44.645 66.968)"/>
                    <path id="prefix__Retângulo_62" d="M0 0H47.435V5.579H0z" class="prefix__cls-3" data-name="Retângulo 62" transform="translate(44.645 78.129)"/>
                    <path id="prefix__Retângulo_63" d="M0 0H27.902V5.579H0z" class="prefix__cls-3" data-name="Retângulo 63" transform="translate(44.645 89.291)"/>
                    <path id="prefix__Retângulo_64" d="M0 0H5.579V5.579H0z" class="prefix__cls-3" data-name="Retângulo 64" transform="translate(66.968 133.936)"/>
                    <path id="prefix__Retângulo_65" d="M0 0H16.74V5.579H0z" class="prefix__cls-3" data-name="Retângulo 65" transform="translate(44.645 133.936)"/>
                    <path id="prefix__Retângulo_66" d="M0 0H27.902V5.579H0z" class="prefix__cls-3" data-name="Retângulo 66" transform="translate(44.645 122.774)"/>
                    <path id="prefix__Retângulo_67" d="M0 0H27.902V5.579H0z" class="prefix__cls-3" data-name="Retângulo 67" transform="translate(44.645 111.613)"/>
                    <path id="prefix__Retângulo_68" d="M0 0H27.902V5.579H0z" class="prefix__cls-3" data-name="Retângulo 68" transform="translate(44.645 100.452)"/>
                </g>
            </g>
        </g>
    </g>
</svg>
