<?xml version="1.0" standalone="no"?>
<!DOCTYPE svg PUBLIC "-//W3C//DTD SVG 20010904//EN"
 "http://www.w3.org/TR/2001/REC-SVG-20010904/DTD/svg10.dtd">
<svg version="1.0" xmlns="http://www.w3.org/2000/svg"
 width="414.000000pt" height="414.000000pt" viewBox="0 0 414.000000 414.000000"
 preserveAspectRatio="xMidYMid meet">
<metadata>
Created by potrace 1.11, written by Peter Selinger 2001-2013
</metadata>
<g transform="translate(0.000000,414.000000) scale(0.100000,-0.100000)"
fill="#000000" stroke="none">
<path d="M1998 4135 c-2 -1 -46 -5 -98 -9 -107 -7 -122 -9 -275 -37 -219 -41
-338 -84 -540 -197 -264 -148 -426 -281 -589 -482 -165 -205 -291 -486 -332
-744 -2 -17 -8 -55 -13 -84 -11 -70 -11 -349 0 -437 22 -180 51 -311 75 -342
12 -16 13 -11 15 42 0 33 2 69 3 80 2 11 6 52 10 90 7 67 9 82 21 158 26 158
71 338 120 473 125 345 324 581 626 743 90 48 284 128 330 136 184 33 273 26
413 -34 99 -42 178 -69 223 -77 15 -3 44 -9 63 -14 38 -9 103 -16 245 -25 237
-16 306 -28 423 -74 83 -33 139 -26 155 21 18 51 -202 188 -438 273 l-90 33
40 17 c90 39 174 59 250 58 66 0 165 -12 186 -23 10 -6 19 -9 19 -6 0 3 39
-11 87 -29 119 -47 241 -120 421 -249 252 -183 325 -222 356 -191 27 27 -9
111 -99 229 -142 187 -356 367 -595 499 -131 72 -355 156 -471 177 -32 6 -71
13 -86 17 -27 6 -448 14 -455 8z"/>
<path d="M1831 3068 c-19 -7 -20 -20 -20 -344 0 -185 -3 -340 -7 -343 -3 -3
-156 -6 -339 -6 -221 0 -338 -4 -345 -11 -7 -7 -9 -107 -8 -300 l3 -289 348
-3 347 -2 0 -68 c0 -37 1 -192 1 -344 0 -207 3 -279 12 -285 17 -10 548 -11
570 -1 16 8 17 35 17 353 l0 345 358 2 357 3 3 296 2 297 -22 4 c-13 2 -175 3
-360 3 l-338 0 0 342 c0 263 -3 344 -12 350 -16 9 -541 11 -567 1z"/>
<path d="M3902 2308 c-3 -69 -31 -302 -48 -393 -37 -206 -109 -436 -181 -583
-152 -312 -364 -508 -698 -647 -49 -20 -103 -43 -120 -50 -41 -18 -142 -35
-235 -39 -83 -3 -161 14 -264 58 -126 54 -154 63 -241 81 -85 17 -138 24 -230
30 -245 17 -266 19 -340 36 -27 7 -73 23 -102 35 -97 43 -183 35 -183 -16 0
-65 257 -215 510 -296 19 -7 3 -17 -67 -44 -155 -59 -340 -38 -538 59 -96 48
-168 87 -190 104 -74 57 -345 235 -393 259 -108 51 -185 41 -169 -23 8 -30 86
-147 135 -202 72 -81 198 -201 272 -259 41 -33 83 -66 92 -73 10 -8 59 -40
110 -73 189 -119 401 -203 623 -248 126 -25 516 -25 695 1 19 3 53 7 75 9 69
8 236 47 335 78 157 50 390 175 570 306 96 71 281 255 353 353 166 227 276
508 311 798 13 100 13 357 2 431 -3 19 -8 58 -11 85 -7 61 -53 247 -64 258 -4
4 -8 -12 -9 -35z"/>
</g>
</svg>
